<?xml version="1.0" encoding="UTF-8" standalone="no"?>
<!-- Created with Inkscape (http://www.inkscape.org/) -->

<svg
   version="1.1"
   id="svg1"
   width="629"
   height="919"
   viewBox="0 0 629 919"
   sodipodi:docname="bear.svg"
   inkscape:version="1.4.3 (0d15f75, 2025-12-25)"
   xmlns:inkscape="http://www.inkscape.org/namespaces/inkscape"
   xmlns:sodipodi="http://sodipodi.sourceforge.net/DTD/sodipodi-0.dtd"
   xmlns="http://www.w3.org/2000/svg"
   xmlns:svg="http://www.w3.org/2000/svg">
  <defs
     id="defs1" />
  <sodipodi:namedview
     id="namedview1"
     pagecolor="#ffffff"
     bordercolor="#000000"
     borderopacity="0.25"
     inkscape:showpageshadow="2"
     inkscape:pageopacity="0.0"
     inkscape:pagecheckerboard="0"
     inkscape:deskcolor="#d1d1d1"
     showgrid="false"
     inkscape:zoom="1.2372144"
     inkscape:cx="314.82014"
     inkscape:cy="459.5"
     inkscape:window-width="2560"
     inkscape:window-height="1351"
     inkscape:window-x="2551"
     inkscape:window-y="-9"
     inkscape:window-maximized="1"
     inkscape:current-layer="g1" />
  <g
     inkscape:groupmode="layer"
     inkscape:label="Image"
     id="g1">
    <path
       style="fill:none;stroke:#000000;stroke-width:0.824201;stroke-opacity:1"
       d="M 4.8737682,617.76598 C 16.670659,583.74322 47.12338,585.92703 69.38989,587.07056 c 18.100063,5.27761 19.948482,2.15707 17.343434,-24.88796 1.783341,-51.25692 8.048583,-102.16007 4.394276,-153.63032 -5.505429,-26.61237 8.513627,-71.06056 -4.63799,-88.28008 -23.364453,-5.16275 -63.246304,-8.64842 -63.698882,-54.60339 11.76381,-30.35151 42.778778,-23.04288 63.639284,-26.50216 23.929218,7.66865 55.913858,-17.54201 74.014718,5.38393 -10.73283,33.45444 -46.47924,14.98249 -67.513993,20.34661 -15.805771,2.72112 -49.848603,-10.64804 -54.238248,13.02633 16.360838,32.57025 52.920522,-0.61725 65.033501,37.21232 6.24368,39.257 -3.15599,81.85436 0.33026,122.88246 1.78066,48.75045 -3.56298,96.76968 -6.291816,145.14986 -10.647655,13.83475 -2.491031,47.65635 -24.482969,37.0666 -14.525967,-1.32406 -52.772158,-9.21118 -50.834476,13.58682 31.886403,20.45978 67.495801,11.99319 101.116431,19.36077 16.26074,-8.79504 36.31151,19.28377 11.24035,25.39105 C 96.580364,671.86239 56.337947,676.19343 20.447485,652.03346 12.544191,645.16744 -0.19599342,634.09416 4.8737682,617.76598 Z M 145.20634,706.22301 c 9.54581,-38.26479 43.36433,-21.64638 64.60072,-29.93084 15.97238,-12.4159 47.71729,-5.00643 26.19315,26.16748 -25.6232,4.96629 -51.71772,3.90195 -77.2318,9.60251 -5.07023,28.11717 35.16006,13.34731 49.46226,15.73497 18.28329,7.33237 49.77283,-19.22844 58.33671,8.27833 -10.07904,22.43668 -30.2487,9.72497 -45.28121,14.44772 -24.58141,0.056 -55.44006,12.09456 -73.07853,-21.01302 -3.90577,-6.05968 -4.96252,-15.50675 -3.0013,-23.28715 z m 14.86165,-496.61686 c 11.47057,-37.66462 44.07706,-33.49166 67.40399,-30.77769 15.75834,-5.43335 57.83013,21.8552 29.75884,38.92642 -25.90273,-12.26232 -55.22712,-21.26464 -81.87552,-8.41081 -7.5708,20.5387 32.57056,17.32102 43.51471,18.07616 18.05973,-16.83865 42.35964,30.19297 13.55932,26.82506 -23.68285,-4.23009 -64.53506,-0.40103 -73.52343,-38.89522 z m 127.90189,508.42001 c 32.39034,16.60123 66.50156,33.15502 101.34108,25.62605 26.15104,2.08573 51.53458,-6.76161 73.39527,-27.57695 22.02076,-19.17006 44.32226,-43.0225 58.36959,-74.44881 13.33851,-33.85432 25.62334,-68.84075 30.7488,-107.66435 10.69832,-64.23542 10.01829,-133.62829 -9.36172,-194.27275 -21.75086,-77.81065 -71.34995,-139.45212 -128.48471,-151.03666 -27.29405,-8.49421 -56.27265,-8.51083 -83.68558,-1.13254 -13.52186,-2.72371 -36.63858,39.511 -41.7793,16.68623 16.86242,-31.08448 45.7496,-42.34501 71.81049,-44.03044 41.2586,-3.08907 84.74126,3.84208 119.56165,39.49556 18.63033,7.88134 32.01592,52.31364 48.4468,48.62249 18.18622,-41.88824 68.73447,-4.17253 59.29348,42.23995 -0.2437,30.53236 -15.47411,40.07877 -31.77594,46.13096 19.30468,67.07604 21.28801,143.24486 8.44575,213.29756 0.40767,23.56623 -17.32139,61.67475 -11.62468,75.21128 30.20033,-7.52191 56.12537,51.61001 30.20434,84.57876 -19.45979,23.806 -49.41691,8.48158 -57.16845,-25.59436 -17.73035,18.58584 -35.26124,45.77016 -55.8049,61.65206 -20.3064,19.00549 -46.65584,25.97693 -71.0967,28.35639 -36.77455,5.78604 -79.65219,1.26528 -105.23258,-43.21018 -0.14386,-3.46699 -10.16475,-12.03752 -5.60269,-12.93025 z m 244.66723,-38.5963 c 13.43149,30.33584 63.24263,14.4399 44.03711,-24.22733 -15.90865,-16.41791 -41.78081,-21.99474 -46.22489,13.42459 l -1.22324,4.27609 z m 1.07986,-406.02291 c 3.5047,34.61905 34.62505,46.27027 41.91381,9.57423 4.13762,-39.37834 -44.78364,-43.10217 -41.91381,-9.57423 z M 357.43611,508.80586 c 14.95383,-24.85346 -12.35268,-60.08803 11.21105,-83.14908 23.28402,-14.8605 11.9132,27.84581 1.27385,37.89176 13.54918,34.54003 53.70525,-27.53269 49.65777,28.8306 0.41621,54.32754 -39.63052,-9.93489 -51.85204,26.11768 -4.12708,15.78971 29.43246,30.83517 6.48192,37.2354 -14.10584,-1.40239 -19.77254,-29.57367 -16.77255,-46.92636 z m 94.0798,41.1566 c 16.67925,-37.7749 26.80643,40.84628 2.56562,18.24292 -4.99874,-2.92598 -3.89745,-12.40261 -2.56562,-18.24292 z m 4.65216,-121.7754 c 14.7391,-41.83397 32.32569,47.6789 4.48254,16.81463 -2.36431,-4.3335 -7.53032,-10.18941 -4.48254,-16.81463 z"
       id="path1" />
  </g>
</svg>
